<svg xmlns="http://www.w3.org/2000/svg" width="400" height="224.933"><g fill-rule="evenodd"><path fill="#0783c4" d="M189.583 7.684c-8.411.247-17.192.855-25.166 1.745-5.57.621-12.974 1.589-15.167 1.982-.275.05-1.7.281-3.167.514-3.467.551-9.109 1.593-12.166 2.247-6.508 1.393-9.829 2.161-14.073 3.254-14.115 3.636-27.547 8.147-40.144 13.481-21.931 9.287-41.303 20.987-57.95 35a134.456 134.456 0 0 0-2.25 1.917c-.046.051-.719.655-1.496 1.343-4.719 4.176-11.287 10.816-15.085 15.252a62.72 62.72 0 0 1-1.086 1.248c-.049.045-.482.558-.961 1.139L0 87.862l.002 30.861.002 30.86.456-.582c8.673-11.071 24.584-25.138 40.097-35.453 3.526-2.343 3.444-2.184 1.526-2.965a90.28 90.28 0 0 1-2-.844 1569.89 1569.89 0 0 0-5.333-2.322c-5.261-2.283-4.812-1.992-4.421-2.866l.313-.699 2.304 1.004c2.134.93 4.311 1.873 10.284 4.454l2.313.999 1.437-.879c2.222-1.359 6.353-3.795 7.187-4.238.412-.22 1.489-.811 2.393-1.315 3.992-2.225 14.396-7.476 15.44-7.792.229-.069.492-.185.583-.257.784-.615 14.504-6.291 19.334-7.998.733-.259 2.308-.82 3.5-1.247 1.191-.428 2.804-.985 3.583-1.239l1.417-.463.027-3.17c.027-3.183.107-4.029.747-7.878.501-3.019 1.739-7.127 3.012-10 .586-1.321 2.382-4.838 2.676-5.24.071-.097.623-.926 1.226-1.843 1.994-3.03 6.164-7.808 8.728-10.002a244.98 244.98 0 0 1 2.828-2.37c17.601-14.133 46.906-17.229 61.256-6.472 3.578 2.682 6.957 6.811 8.739 10.677.211.459.597 1.284.856 1.834 1.12 2.372 2.178 5.75 3.081 9.833.324 1.467.611 2.742.637 2.833.027.092.181-.583.343-1.5 1.003-5.671 2.903-10.829 5.855-15.897 1.488-2.555 4.32-5.683 7.033-7.769.12-.092.308-.244.42-.339 6.379-5.411 21.521-7.538 34.957-4.911 2.867.561 8.03 1.995 9.579 2.661.183.079 1.046.423 1.916.765 12.555 4.929 22.683 13.913 29.021 25.74 2.317 4.325 4.292 11.788 4.591 17.353l.106 1.971 1.599.488c6.964 2.124 9.259 2.853 12.607 4.004 8.579 2.949 14.913 5.429 23.326 9.132 5.647 2.485 15.323 7.369 20.667 10.431 1.283.735 2.671 1.525 3.083 1.756.413.23 1.327.78 2.032 1.221l1.282.801.968-.427c.533-.235 1.381-.616 1.885-.846a48.804 48.804 0 0 1 1.667-.723c.412-.167 2.137-.915 3.833-1.662a1101.65 1101.65 0 0 1 3.293-1.447c.203-.085.707.855.707 1.32 0 .119-.281.34-.625.49-.344.151-1.525.662-2.625 1.136a740.568 740.568 0 0 0-6.542 2.863c-.885.393-.904.331.334 1.074 1.359.817 6.612 4.306 8.599 5.713.857.606 1.72 1.212 1.917 1.346 2.692 1.831 13.98 10.738 14.775 11.66.046.053.759.694 1.584 1.425 5.429 4.811 12.565 12.148 16.951 17.428l.617.743.008-30.838.007-30.837-1.855-2.163c-7.984-9.305-18.45-19.041-28.395-26.413-.917-.679-1.704-1.281-1.75-1.337-.69-.844-19.626-13.162-20.234-13.162-.028 0-.719-.384-1.534-.853-4.153-2.39-13.377-7.127-17.649-9.063l-2.833-1.286c-2.672-1.213-4.895-2.159-9.583-4.078-2.06-.843-5.357-2.097-8.5-3.234a166.215 166.215 0 0 1-3.117-1.149c-3.012-1.273-18.373-5.851-25.717-7.665a389.738 389.738 0 0 1-3.333-.833c-.321-.085-2.346-.535-4.5-1.001a568.276 568.276 0 0 1-4.917-1.08c-.55-.128-2.875-.574-5.166-.991-2.292-.417-4.805-.875-5.584-1.019-18.253-3.355-43.565-5.048-65.75-4.397"/><path fill="#edeeef" d="M.006 43.875.012 87.75l.702-.83C24.021 59.369 56.698 38.143 97.5 24.051c13.866-4.789 32.463-9.545 45.75-11.702.55-.089 1.862-.312 2.917-.495 3.834-.665 13.147-1.958 16.333-2.267a85.802 85.802 0 0 0 2.333-.268c15.224-1.976 50.486-2.386 62.917-.731.367.049 1.942.197 3.5.33 5.499.468 15.918 1.739 19.833 2.419.55.096 1.938.323 3.084.505 2.894.46 9.115 1.607 12.166 2.244 2.291.478 8.076 1.761 8.667 1.921.321.087 1.408.352 2.417.589 13.308 3.127 30.906 8.941 43.75 14.454 32.718 14.044 57.805 31.817 78.037 55.286l.788.914.004-43.625L400 0H0l.006 43.875m154.327-11.442c-29.544 2.027-52.462 23.303-52.496 48.734-.037 28.023 27.254 48.174 54.33 40.113 4.623-1.376 10.433-4.06 14.666-6.775 3.45-2.213 3.317-2.069 3.844-4.132 1.744-6.833 7.319-12.96 13.394-14.719l.82-.237.788-1.667c6.823-14.432 5.066-36.887-3.863-49.37-5.99-8.376-17.864-12.881-31.483-11.947m73.25.004c-12.837 1.033-20.471 4.862-25.88 12.98-8.311 12.473-9.765 34.203-3.223 48.163.632 1.349.681 1.405 1.379 1.583 7.7 1.958 13.804 8.56 15.277 16.524l.289 1.563 2.162 1.382c19.482 12.447 40.966 11.028 56.219-3.712 15.311-14.798 16.796-38.885 3.467-56.253-11.122-14.494-31.66-23.682-49.69-22.23m-1.75 30.905c8.287 1.32 12.454 10.592 8.454 18.812-3.402 6.989-10.11 8.438-16.577 3.58-10.168-7.637-4.108-24.341 8.123-22.392m-58.583.587c8.731 2.332 11.462 14.043 4.844 20.779-6.386 6.501-14.352 5.424-18.187-2.458-4.862-9.994 3.18-21.036 13.343-18.321m53.167 2.312c-2.452.806-3.232 1.919-2.751 3.925.258 1.073.55 1.232 2.069 1.124 2.417-.172 4.783-1.239 4.984-2.247.44-2.215-1.749-3.641-4.302-2.802m-60.57.507c-1.772.658-2.264 1.289-2.264 2.904 0 2.307.819 2.578 4.5 1.487 2.452-.727 3.124-1.76 2.254-3.465-.721-1.413-2.3-1.739-4.49-.926m58.613 7.013c-.961.522-.62 1.928.496 2.04 1.013.101 1.543-1.15.802-1.892-.47-.47-.664-.492-1.298-.148m-60.188.418c-.556.438-.594 1.23-.08 1.676 1.097.951 2.523-.499 1.499-1.523-.59-.59-.83-.616-1.419-.153M288 82.899c0 12.322-6.543 25.047-16.87 32.81-15.685 11.79-35.084 11.997-53.438.572-1.131-.705-2.076-1.281-2.1-1.281-.023 0-.088.844-.145 1.875-.29 5.326-2.373 9.982-6.269 14.013-1.252 1.295-1.751 2.445-1.061 2.445.166 0 .216.488.216 2.084 0 1.689-.044 2.083-.236 2.083-.169 0-.271.313-.353 1.082-.099.929-.204 1.182-.74 1.791-.343.391-.676.879-.742 1.085-.065.207-.212.375-.326.375-.115 0-.653.42-1.196.933-1.024.968-1.814 1.478-2.058 1.327-.078-.048-.394.042-.703.201-1.466.754-6.498.27-7.305-.702-.363-.438-.507-.292-.524.533-.016.772-.261 1.873-.306 1.375-.181-2.021-.504-2.918-1.32-3.664-.452-.414-.945-1.015-1.094-1.336a14.513 14.513 0 0 0-.681-1.25c-.225-.367-.411-.868-.413-1.115-.001-.247-.078-.495-.169-.552-.301-.186-.199-1.082.125-1.095.16-.006-.159-.145-.709-.308-9.465-2.807-15.571-10.925-15.582-20.716l-.001-1.286-1.875 1.214c-16.252 10.522-33.18 12.187-47.845 4.707-13.455-6.863-22.087-19.267-23.699-34.057-.063-.573-.17-1.042-.239-1.042-.208 0-4.737 1.552-8.009 2.744-14.997 5.467-29.648 12.397-42.875 20.283-4.059 2.42-3.907 2.274-2.832 2.711.843.342 8.269 3.562 9.431 4.089.381.173 1.837.807 3.235 1.41 3.808 1.642 7.471 3.229 8.875 3.844.687.302 2.637 1.151 4.333 1.887l8.25 3.585c2.842 1.236 9.179 3.989 14.083 6.119 4.904 2.129 10.379 4.508 12.167 5.285 1.787.778 4.6 1.998 6.25 2.711 1.65.714 5.362 2.326 8.25 3.583a5935.78 5935.78 0 0 0 6.574 2.858c.728.315 1.553.676 1.833.803.28.126 1.672.731 3.093 1.344 1.421.613 3.765 1.631 5.209 2.263 1.444.631 2.7 1.148 2.791 1.148.247 0 .203.413-.114 1.077-.339.711-.392.715-1.738.115-1.904-.849-5.96-2.618-11.148-4.863-2.796-1.21-5.646-2.447-6.333-2.748a2773.87 2773.87 0 0 0-5.126-2.229c-2.132-.926-5.619-2.444-7.75-3.375a717.59 717.59 0 0 0-4.958-2.148c-.596-.25-3.783-1.636-7.083-3.079-3.3-1.443-6.75-2.945-7.667-3.337-.916-.392-3.241-1.4-5.166-2.241-1.925-.841-4.813-2.094-6.417-2.785-1.604-.691-4.942-2.139-7.417-3.219A7893.393 7893.393 0 0 0 58 117.585a3211.005 3211.005 0 0 1-10.167-4.423 170.371 170.371 0 0 0-3.282-1.414l-.699-.277-1.635 1.056c-15.461 9.986-29.913 22.547-40.852 35.507L0 149.651v75.182h400V149.212l-1.615-1.898c-8.215-9.653-18.812-19.437-29.802-27.513-4.979-3.659-6.516-4.725-11.197-7.764-3.11-2.018-3.004-1.976-3.903-1.572-.889.4-6.786 2.968-12.9 5.618a1635.123 1635.123 0 0 0-5.75 2.501c-1.575.695-6.977 3.03-9.5 4.107-1.054.45-2.479 1.075-3.166 1.388-.688.314-3.238 1.428-5.667 2.477-4.249 1.836-9.791 4.24-16.667 7.23-1.787.777-4.6 1.999-6.25 2.714-1.65.715-4.5 1.954-6.333 2.751-1.833.798-5.283 2.296-7.667 3.329a5334.061 5334.061 0 0 0-8.25 3.585c-9.234 4.023-12.815 5.578-13.833 6.006-.596.25-1.518.649-2.049.886-.881.393-.975.406-1.066.145-.056-.157-.2-.534-.322-.837-.221-.551-.219-.553.4-.81.675-.281 7.987-3.447 11.87-5.139 1.329-.58 4.16-1.811 6.291-2.736l7.667-3.332c2.086-.907 6.942-3.014 10.792-4.682 3.85-1.669 7.563-3.281 8.25-3.583a928.3 928.3 0 0 1 3.834-1.667c1.42-.615 4.271-1.854 6.333-2.753 2.063-.899 5.813-2.531 8.333-3.626l24.25-10.538c3.209-1.394 6.809-2.949 8-3.456 1.192-.507 2.218-.968 2.281-1.024.063-.056-1.362-.962-3.167-2.014-16.548-9.64-33.847-17.226-53.364-23.4-3.175-1.004-7.466-2.272-7.691-2.272-.078 0-.142.705-.142 1.566m-93.984 1.518c-.614 2.963-1.872 6.983-2.914 9.317-.544 1.218-.623 1.164 1.342.927.992-.12 2.346-.155 3.431-.087.985.061 1.792.062 1.792.004 0-.059-.253-.682-.562-1.384-.977-2.225-2.187-6.218-2.735-9.027l-.146-.75-.208 1m13.218 48.275-.317.36.458-.295c.473-.305.562-.424.317-.424-.077 0-.283.162-.458.359M22.333 154.171c3.681.408 8.106.914 11.084 1.268 1.191.142 3.141.361 4.333.487 3.983.421 6.816.735 8.917.987 4.037.487 6.44.764 8.666 1.002 1.238.133 4.913.546 8.167.918 3.254.373 7.229.824 8.833 1.002 1.605.179 4.567.514 6.584.745 2.016.231 5.691.65 8.166.93 2.475.279 6.113.692 8.084.917 1.971.225 4.896.556 6.5.736 1.604.18 4.529.514 6.5.741 1.971.228 4.033.46 4.583.516.55.056 2.237.245 3.75.421 1.513.175 4.138.474 5.833.663 1.696.19 4.321.488 5.834.664 1.512.176 4.231.487 6.041.691l3.292.371v.792c0 1.101 1.049 1.092-7.917.065-2.108-.241-4.808-.546-6-.676-1.191-.131-3.479-.388-5.083-.571-6.549-.75-16.39-1.865-18.5-2.096a209.494 209.494 0 0 1-3.5-.412c-.687-.09-3.013-.354-5.167-.586a799 799 0 0 1-6-.667c-1.145-.134-3.433-.396-5.083-.581a6314.837 6314.837 0 0 1-16.917-1.922 673.56 673.56 0 0 0-4.416-.496 1057.67 1057.67 0 0 1-5.834-.659c-2.016-.233-5.991-.684-8.833-1.002-5.452-.611-8.67-.977-14.667-1.669a674.71 674.71 0 0 0-5.333-.597c-.917-.095-2.487-.281-3.489-.413-1.003-.132-2.072-.24-2.375-.24-.602 0-.671-.202-.449-1.311.098-.487.142-.515.709-.439.332.044 1.991.233 3.687.421m354.918.34c.147 1.067 1.497.77-8.668 1.906-2.016.226-4.641.526-5.833.667-1.192.141-2.504.292-2.917.334-.772.08-4.608.512-9.583 1.08-1.558.178-4.221.478-5.917.666-1.696.189-4.358.489-5.916.667-1.559.179-4.184.477-5.834.664a3863.78 3863.78 0 0 1-10.333 1.172c-3.208.362-8.496.961-11.75 1.332-3.254.371-7.267.825-8.917 1.01-1.65.184-4.612.522-6.583.749-1.971.228-5.946.679-8.833 1.002-2.888.323-6.863.775-8.834 1.003-1.971.228-4.558.521-5.75.65-1.191.129-3.179.351-4.416.493-1.238.141-3.6.409-5.25.594s-3.272.373-3.604.417l-.603.08-.092-.79c-.119-1.032-.341-.943 3.382-1.36 3.1-.348 5.096-.575 11.667-1.33 1.604-.184 4.341-.493 6.083-.685 1.742-.193 4.442-.498 6-.679 1.558-.18 3.171-.362 3.583-.404.413-.043 1.725-.189 2.917-.326 3.586-.412 7.82-.893 11.083-1.259 1.696-.19 4.321-.491 5.834-.669 1.512-.178 5.45-.626 8.75-.997 3.3-.37 7.275-.82 8.833-1 1.558-.18 5.533-.63 8.833-1s7.313-.823 8.917-1.007l5.083-.581 4.417-.504a624.9 624.9 0 0 1 4.5-.497c1.238-.132 3.188-.352 4.333-.488 1.146-.136 3.434-.399 5.084-.584 2.83-.319 5.863-.671 8.5-.988.641-.077 1.291-.15 1.442-.161.21-.016.304.181.392.823m-239.75 37.91c.27.963.463.847-2.79 1.673a6542.14 6542.14 0 0 0-16.294 4.157c-1.559.402-5.046 1.292-7.75 1.978a4009.23 4009.23 0 0 0-7.834 1.998c-1.604.413-5.316 1.36-8.25 2.106-6.573 1.671-11.982 3.049-17 4.333-4.152 1.063-11.385 2.905-18 4.586a5817.423 5817.423 0 0 0-14.75 3.77 4918.3 4918.3 0 0 1-9.416 2.398c-3.392.861-7.33 1.87-8.75 2.243-5.702 1.496-5.692 1.495-5.897.542-.084-.391-.119-.745-.079-.785.082-.082 1.869-.548 10.476-2.731 6.621-1.68 12.516-3.184 16.75-4.273a4136.72 4136.72 0 0 1 8.416-2.148c7.578-1.925 12.831-3.262 17.5-4.456L82 205.728c2.337-.595 5.675-1.449 7.417-1.896 1.741-.447 5.416-1.384 8.166-2.082 2.75-.699 6.763-1.721 8.917-2.272 2.154-.552 5.792-1.479 8.083-2.061a6348.156 6348.156 0 0 0 18.917-4.839c1.879-.485 3.501-.889 3.603-.897.103-.008.282.325.398.74m124.113.171c2 .508 5.061 1.291 6.803 1.739 1.741.448 5.266 1.349 7.833 2.003 2.567.653 6.429 1.643 8.583 2.199 2.154.555 4.329 1.105 4.834 1.221.504.115 2.079.513 3.5.884 1.42.37 4.945 1.273 7.833 2.006 2.887.733 6.712 1.708 8.5 2.167 3.77.967 10.791 2.758 16.75 4.273 9.633 2.449 13.716 3.489 17.417 4.436l7.416 1.897c1.925.493 5.75 1.468 8.5 2.166 11.585 2.943 14.837 3.782 14.895 3.84.093.093-.129 1.127-.3 1.397-.162.256-.726.13-9.928-2.221l-9.833-2.51c-3.117-.795-6.942-1.773-8.5-2.174-2.754-.707-6.569-1.68-17.417-4.441-5.553-1.413-12.269-3.125-22-5.609l-9.917-2.531-8.25-2.106c-2.337-.598-6.275-1.6-8.75-2.229-11.459-2.911-20.141-5.125-21.611-5.511-.644-.169-.659-.281-.218-1.613.089-.269-.296-.34 3.86.717"/><path fill="#a21b2a" d="M233.926 80.818c-.052.084-.051.264.001.4.053.137.003.306-.111.376-.144.089-.174.044-.1-.15.093-.242-.04-.277-1.055-.277-.663 0-1.161.071-1.161.166 0 .092-.271.167-.601.167-.484 0-.581-.052-.498-.268.056-.148-.313.111-.82.575-2.877 2.629-7.221 2.824-10.041.451l-.511-.43-.168.461c-.105.289-.173.352-.181.169-.014-.315-.068-.323-2.175-.327-.951-.001-1.298-.067-1.467-.275-.123-.152-.098-.02.056.297.733 1.509 4.78 4.835 5.971 4.906.222.013.373.073.336.133-.088.142.929.497 1.107.387.074-.047.185-.005.245.092.059.097.252.13.428.075.175-.056.319-.033.319.051 0 .313 3.357.362 3.729.054.12-.1.268-.132.328-.072.06.061.11.041.11-.043 0-.084.202-.164.449-.179.247-.014.536-.144.641-.289.106-.144.229-.226.274-.181.092.091 1.162-.612 1.913-1.256 1.114-.956 2.932-3.597 3.297-4.789.112-.367-.123-.534-.315-.224m-60.438.584c.148.178.148.264.001.355-.106.065-.258.016-.338-.111-.114-.178-.146-.161-.148.08-.002.213-.085.278-.267.208-.145-.055-.67-.101-1.166-.101-.747 0-.904-.05-.909-.291-.005-.223-.063-.193-.244.125-.131.229-.241.309-.244.177-.005-.166-.147-.109-.465.184-3.071 2.837-7.317 3.022-10.405.454-.429-.357-.841-.648-.916-.646-.075.001-.025.075.113.164.179.115-.007.162-.648.164-.6.002-.96.085-1.084.251-.101.137-.466.268-.809.292-.422.029-.627.124-.63.293-.005.197-.042.188-.176-.042-.093-.16-.239-.291-.324-.291-.244 0 .843 1.725 1.741 2.763 1.216 1.404 3.987 3.063 4.675 2.799.14-.054.255-.024.255.067 0 .232 2.778.261 2.921.03.062-.1.213-.144.335-.097.254.098 2.077-.386 2.077-.55 0-.059.168-.121.372-.136.205-.015.46-.149.568-.297.108-.147.26-.264.337-.259.287.019.723-.181.723-.332 0-.085.069-.136.153-.113.085.023.618-.294 1.186-.705 2.146-1.55 4.343-4.67 3.29-4.67-.103 0-.092.093.026.235m47.28.069c-.046.074.063.24.241.369.602.434.33.509-.298.083-.782-.532-1.05-.544-.563-.026 1.787 1.902 6.678 1.878 8.414-.041.346-.381-1.224-.351-2.729.053-1.247.335-2.374.264-3.68-.232-.739-.281-.814-.286-.622-.043.197.249.174.248-.231-.01-.247-.158-.487-.226-.532-.153m-53.414.606c-.151.311-.166.313-.176.03-.008-.228-.088-.278-.303-.188-1.591.661-2.789.73-4.375.252l-1.083-.327.416.339c.301.245.324.296.084.185-1.326-.615-2.185-.273-1.036.413 2.41 1.438 5.53 1.198 7.585-.585.509-.442.465-.516-.289-.485-.48.019-.702.117-.823.366m23.729 12.819c-10.715 1.756-18.488 12.892-16.766 24.021 2.093 13.519 16.28 21.474 28.641 16.057 9.968-4.368 14.922-15.976 11.265-26.391-3.37-9.597-13.075-15.337-23.14-13.687"/><path fill="#212123" d="M221.2 63.67c-8.889 2.329-11.587 14.407-4.673 20.926 5.405 5.097 11.697 5.246 15.797.374 8.166-9.7.515-24.349-11.124-21.3m-60.034.385c-9.246 2.738-11.645 14.951-4.342 22.112 4.363 4.277 11.359 3.248 15.934-2.343 7.526-9.199-.584-23.029-11.592-19.769m62.471 2.229c1.105.819 1.536 2.572.848 3.448-.867 1.101-5.674 2.222-6.404 1.492-.726-.726-.817-2.633-.17-3.584.977-1.438 4.493-2.271 5.726-1.356m-60.367.153c1.058.502 1.748 2.151 1.362 3.257-.466 1.336-5.717 2.736-6.674 1.779-.831-.831-.738-2.994.164-3.836 1.285-1.198 3.878-1.803 5.148-1.2m56.637 7.433c.583.832.03 2.13-.907 2.13-.546 0-1.167-.651-1.167-1.225 0-.835.403-1.275 1.167-1.275.48 0 .715.096.907.37m-60.086.402c.695.884.208 1.961-.885 1.961-.707 0-1.055-.288-1.195-.988-.24-1.2 1.326-1.932 2.08-.973m74.422 6.77c-.793 2.65-3.878 5.793-6.602 6.726-3.781 1.295-10.725-1.836-12.576-5.671-.169-.351-.178-.428-.027-.241.169.208.516.274 1.467.275 2.107.004 2.161.012 2.175.327.008.183.076.12.181-.169l.168-.461.511.43c2.82 2.373 7.164 2.178 10.041-.451.507-.464.876-.723.82-.575-.083.216.014.268.498.268.33 0 .601-.075.601-.167 0-.095.498-.166 1.161-.166 1.015 0 1.148.035 1.055.277-.074.194-.044.239.1.15.114-.07.164-.239.111-.376-.109-.286.016-.551.261-.551.096 0 .12.159.055.375m-60.512.385c.231.603-2.212 3.543-3.898 4.688-4.939 3.357-9.989 3.096-13.263-.685-.898-1.038-1.985-2.763-1.741-2.763.085 0 .231.131.324.291.134.23.171.239.176.042.003-.169.208-.264.63-.293.343-.024.708-.155.809-.292.124-.166.484-.249 1.084-.251.641-.002.827-.049.648-.164-.138-.089-.188-.163-.113-.164.075-.002.487.289.916.646 3.088 2.568 7.334 2.383 10.405-.454.318-.293.46-.35.465-.184.003.132.113.052.244-.177.181-.318.239-.348.244-.125.005.241.162.291.909.291.496 0 1.021.046 1.166.101.182.07.265.005.267-.208.002-.241.034-.258.148-.08.08.127.232.176.338.111.147-.091.147-.177-.001-.355-.118-.142-.129-.235-.026-.235.093 0 .214.117.269.26m47.8.207c-.192-.243-.117-.238.622.043 1.306.496 2.433.567 3.68.232 1.505-.404 3.075-.434 2.729-.053-1.736 1.919-6.627 1.943-8.414.041-.487-.518-.219-.506.563.026.628.426.9.351.298-.083-.488-.352-.226-.546.291-.216.405.258.428.259.231.01m-52.698.147c0 .137-.642.677-1.26 1.059-1.917 1.184-4.649 1.16-6.692-.059-1.149-.686-.29-1.028 1.036-.413.24.111.217.06-.084-.185l-.416-.339 1.083.327c1.586.478 2.784.409 4.375-.252.215-.09.295-.04.303.188.01.283.025.281.176-.03.153-.315 1.479-.58 1.479-.296m-138.504 22.77c-.391.874-.84.583 4.421 2.866 2.475 1.074 4.8 2.087 5.167 2.251a91.7 91.7 0 0 0 1.75.747c1.608.668 1.14.467 9.583 4.117a3822.43 3822.43 0 0 1 17.333 7.554c1.834.803 3.746 1.629 4.25 1.836.504.206 2.154.918 3.667 1.582 1.512.664 3.575 1.564 4.583 1.999 1.009.435 3.596 1.559 5.75 2.498 2.154.938 4.404 1.914 5 2.168 1.042.444 3.004 1.297 11.5 4.996l7.084 3.082 7.666 3.336c2.475 1.078 6.713 2.917 9.417 4.088a3590.233 3590.233 0 0 1 11.713 5.091l1.296.563.269-.564c.388-.814.277-.932-1.634-1.745-.95-.404-3.49-1.501-5.644-2.439-7.542-3.281-10.12-4.4-14.75-6.403a1613.182 1613.182 0 0 1-5.75-2.498c-1.029-.455-9.877-4.299-15.25-6.627a832.903 832.903 0 0 1-3.75-1.633c-.687-.303-4.4-1.915-8.25-3.582-3.85-1.666-7.562-3.277-8.25-3.58a1650.751 1650.751 0 0 0-8.167-3.562 3432.07 3432.07 0 0 1-14.083-6.115c-.275-.122-2-.872-3.833-1.666-3.829-1.659-4.578-1.988-5.5-2.415-.683-.316-4.404-1.937-8.417-3.665-1.238-.533-3.287-1.422-4.554-1.974l-2.304-1.005-.313.699m333.643-.545c-.272.158-4.652 2.082-6.805 2.988-1.077.454-1.519.65-3.75 1.671-.642.294-2.892 1.284-5 2.202-6.615 2.878-11.394 4.954-14.5 6.299-1.65.714-4.763 2.065-6.917 3.002-4.198 1.826-10.033 4.361-14.083 6.119-1.375.596-3.4 1.477-4.5 1.958-1.1.481-3.613 1.568-5.584 2.416a640.906 640.906 0 0 0-4.25 1.842 1354.66 1354.66 0 0 1-9.75 4.249c-2.221.956-5.453 2.361-7.083 3.079-.367.161-2.054.895-3.75 1.63l-7.583 3.291c-13.541 5.878-16.307 7.086-16.374 7.15-.121.118.543 1.433.693 1.372.1-.04 2.281-.989 4.847-2.108 6.74-2.939 12.381-5.39 20.334-8.836a3259.19 3259.19 0 0 0 7.5-3.257c.718-.32 11.95-5.207 15.5-6.744 5.1-2.208 10.517-4.56 14-6.077 1.833-.798 4.42-1.924 5.75-2.501l5.75-2.5c1.833-.798 4.646-2.014 6.25-2.703a439.604 439.604 0 0 0 5.583-2.427c.733-.323 2.458-1.076 3.833-1.673s4.237-1.842 6.36-2.767c2.124-.925 3.909-1.681 3.968-1.681.059 0 .422-.14.806-.31a753.372 753.372 0 0 1 6.533-2.859c1.1-.474 2.281-.985 2.625-1.136.693-.303.735-.443.384-1.284-.257-.615-.348-.661-.787-.405M18 154.565c0 .89-.752.72 7.083 1.595 3.3.369 7.313.822 8.917 1.008 1.604.185 3.967.45 5.25.587 1.283.138 2.971.329 3.75.426.779.096 2.392.279 3.583.408 1.192.128 3.817.424 5.834.657 2.016.233 5.691.649 8.166.923 2.475.274 5.063.573 5.75.664.688.092 1.963.24 2.834.33 1.503.155 13.095 1.459 16.263 1.829.818.095 2.799.322 4.403.504l5.834.662c1.604.183 4.304.488 6 .679 1.695.191 4.058.46 5.25.599 1.191.139 3.141.357 4.333.485 1.192.129 3.817.426 5.833.661 2.017.236 4.342.5 5.167.588.825.088 3.15.349 5.167.58 7.036.805 9.789 1.1 9.829 1.05.023-.028.088-.36.147-.74.124-.814.349-.737-3.31-1.134-1.283-.14-3.308-.367-4.5-.506-1.191-.138-3.498-.401-5.125-.584-1.627-.182-4.252-.479-5.833-.66l-5.875-.672c-1.65-.188-4.987-.565-7.417-.836a2882.71 2882.71 0 0 1-8.083-.916 746.072 746.072 0 0 0-5.25-.59c-.871-.092-2.483-.275-3.583-.406s-3.388-.395-5.084-.587c-1.696-.192-4.02-.459-5.166-.593a479.69 479.69 0 0 0-4.334-.485c-4.533-.485-8.427-.929-8.833-1.007-.229-.044-1.504-.193-2.833-.33-1.33-.138-5.417-.59-9.084-1.004-6.754-.764-8.095-.916-14.666-1.666-3.337-.381-9.554-1.085-17-1.924-3.752-.423-3.417-.463-3.417.405m355.5-.391c-1.421.164-4.946.566-7.833.894-2.888.327-6.9.785-8.917 1.016-4.627.532-9.047 1.031-11.833 1.338-1.192.131-3.854.432-5.917.668-2.062.236-4.763.537-6 .669-1.238.132-2.812.315-3.5.405-1.338.177-4.567.545-8.083.922-1.192.128-3.817.422-5.834.654-7.276.836-15.542 1.78-17.583 2.007-4.28.476-14.373 1.616-17.833 2.014-1.971.227-5.871.67-8.667.985-15.76 1.774-13.834 1.475-13.831 2.144.006 1.1-.684 1.104 9.331-.052 1.604-.186 4.942-.561 7.417-.835 2.475-.273 5.775-.647 7.333-.831 4.785-.563 7.099-.828 8.75-1.001.871-.091 3.571-.394 6-.673s5.054-.576 5.833-.66c1.5-.163 5.035-.565 14.667-1.67 3.254-.373 6.967-.79 8.25-.925 1.283-.135 2.896-.319 3.583-.408a561.98 561.98 0 0 1 5.834-.673c2.521-.28 7.208-.809 10.416-1.175 3.209-.365 7.146-.811 8.75-.99 1.605-.178 4.905-.552 7.334-.829l5.166-.587c.413-.046 2.063-.233 3.667-.417 1.604-.184 3.629-.412 4.5-.508 2.808-.308 2.667-.251 2.667-1.091 0-.871.248-.844-3.667-.391m-239 38.243c-1.146.302-4.896 1.264-8.333 2.139-3.438.875-7.863 2.003-9.834 2.507a36399.003 36399.003 0 0 0-16.166 4.125L92 203.27c-2.338.595-5.675 1.448-7.417 1.895-1.741.447-5.566 1.423-8.5 2.169a12082.6 12082.6 0 0 0-8.916 2.272c-1.971.504-5.646 1.441-8.167 2.082-2.521.642-6.196 1.579-8.167 2.083-1.971.503-5.795 1.478-8.5 2.166-2.704.687-6.191 1.578-7.75 1.98-1.558.402-5.233 1.338-8.166 2.08a628.88 628.88 0 0 0-5.522 1.413c-.323.11.099 1.613.425 1.514.145-.044 1.726-.452 3.513-.907l8.25-2.1c2.75-.7 6.425-1.637 8.167-2.083 1.742-.447 5.267-1.346 7.833-2 2.567-.653 6.242-1.591 8.167-2.083 6.877-1.76 12.074-3.085 16.917-4.315a6990.235 6990.235 0 0 0 17.416-4.434 8854.722 8854.722 0 0 1 25.917-6.607c2.704-.687 5.922-1.51 7.151-1.829 1.229-.319 4.604-1.183 7.499-1.919 6.059-1.541 5.413-1.279 5.269-2.136-.141-.831-.122-.831-2.919-.094m123.26-.125c-.06.252-.145.58-.189.729-.054.183.044.298.299.352.411.088 12.593 3.186 17.213 4.379 1.559.402 4.934 1.265 7.5 1.918 2.567.652 5.942 1.512 7.5 1.911 1.559.398 6.246 1.593 10.417 2.655 4.171 1.062 9.946 2.539 12.833 3.282 2.888.743 5.663 1.445 6.167 1.56.504.115 2.379.59 4.167 1.056 1.787.466 5.8 1.494 8.916 2.284 3.117.79 6.792 1.726 8.167 2.081s5.2 1.331 8.5 2.169c3.3.838 7.162 1.821 8.583 2.184 1.421.364 5.509 1.407 9.084 2.319 3.575.912 6.655 1.701 6.844 1.755.397.112.902-1.386.511-1.513-.104-.034-1.576-.407-3.272-.83-1.696-.423-4.696-1.183-6.667-1.688a4176.28 4176.28 0 0 0-7.75-1.98 24044.72 24044.72 0 0 1-32.666-8.332c-1.925-.493-5.45-1.393-7.834-1.999-2.383-.607-5.908-1.507-7.833-2-1.925-.493-6.05-1.544-9.167-2.334a9519.29 9519.29 0 0 1-25.166-6.427c-2.2-.566-4.263-1.087-4.584-1.158-.321-.07-2.953-.736-5.849-1.48-6.07-1.558-5.583-1.482-5.724-.893"/><path fill="#808c93" d="M192.288 7.62c.296.037.821.038 1.167.002.345-.036.103-.067-.538-.067-.642-.001-.925.028-.629.065m14.92-.001c.252.039.665.039.917 0 .252-.038.046-.069-.458-.069-.505 0-.711.031-.459.069m-20.916.168c.298.037.785.037 1.083 0 .298-.037.054-.067-.542-.067-.596 0-.839.03-.541.067m26.496 0c.296.037.821.037 1.167.001.345-.036.103-.066-.538-.067-.642 0-.925.029-.629.066m-35.413.495c.16.041.423.041.583 0 .161-.042.029-.077-.291-.077-.321 0-.452.035-.292.077m47.667.166c.16.042.423.042.583 0 .16-.042.029-.076-.292-.076s-.452.034-.291.076m-72.125 23.169c-11.33.774-24.733 5.917-33.256 12.761a244.98 244.98 0 0 0-2.828 2.37c-2.564 2.194-6.734 6.972-8.728 10.002-.603.917-1.155 1.746-1.226 1.843-.188.257-.644 1.115-1.546 2.907-2.549 5.064-3.716 8.99-4.674 15.718-.21 1.48-.265 7.153-.085 8.782 3.101 27.991 31.148 45.522 57.843 36.156 4.791-1.681 9.269-3.89 13.698-6.758 1.503-.973 1.878-1.153 1.932-.928.036.154.097-.298.135-1.005.067-1.259.061-1.28-.265-1.044-7.773 5.622-17.173 9.49-25.334 10.424-15.386 1.763-31.148-5.604-39.785-18.595-.732-1.1-1.404-1.979-1.493-1.954-.09.025-.12-.024-.068-.108.052-.084-.238-.78-.645-1.546-6.516-12.268-6.275-27.596.634-40.224.451-.826.823-1.595.825-1.71.003-.114.039-.173.081-.131.043.042.586-.689 1.207-1.625 9.889-14.895 28.838-24.554 48.078-24.506 14.937.038 24.572 4.79 30.333 14.963 7.295 12.882 8.138 33.193 1.924 46.355l-.794 1.681.602-.215c.331-.119.826-.22 1.101-.225.321-.007.424-.058.288-.145-.164-.104-.113-.357.229-1.122 1.044-2.338 2.302-6.356 2.916-9.321l.208-1 .146.75c.551 2.827 1.759 6.804 2.752 9.063.461 1.051.532 1.342.352 1.456-.144.092.022.143.471.145.382.001.812.047.955.102.183.071.061-.325-.407-1.325-7.243-15.456-4.663-39.466 5.506-51.229 12.596-14.572 44.095-13.067 64.251 3.07 16.701 13.37 22.514 34.196 14.668 52.551-3.02 7.065-8.98 13.915-16.053 18.45-14.697 9.423-32.747 8.748-49.32-1.845-1.825-1.167-2.194-1.348-2.137-1.049.037.198.073.588.08.866.041 1.703 12.446 7.528 19.512 9.164 26.456 6.122 53-14.255 53-40.687 0-1.14.057-1.566.208-1.568.144-.002.152-.041.026-.125-.105-.07-.231-.964-.293-2.077-.31-5.567-2.278-12.986-4.587-17.296-5.033-9.392-11.131-15.754-20.771-21.67-1.604-.985-6.33-3.316-8.25-4.07a125.55 125.55 0 0 1-1.916-.765c-8.197-3.525-22.794-4.8-32.417-2.832-4.328.886-9.952 3.244-12.119 5.082-.112.095-.3.247-.42.339-2.713 2.086-5.545 5.214-7.033 7.769-2.952 5.068-4.852 10.226-5.855 15.897-.162.917-.316 1.592-.343 1.5-.026-.091-.313-1.366-.637-2.833-.903-4.083-1.961-7.461-3.081-9.833-.259-.55-.645-1.375-.856-1.834-3.654-7.927-11.054-13.746-20.156-15.849-4.507-1.042-11.143-1.489-16.583-1.117m70.458 31.671c.344.036.906.036 1.25 0s.063-.065-.625-.065c-.687 0-.969.029-.625.065m-59.833.333c.343.036.906.036 1.25 0 .343-.036.062-.065-.625-.065-.688 0-.969.029-.625.065m-7.172 3.171c-1.299 1.275-1.301 1.278-.134.218.649-.59 1.29-1.171 1.425-1.291.134-.121.195-.219.135-.219s-.702.581-1.426 1.292m75.713-.125c.545.55 1.027 1 1.073 1 .046 0-.362-.45-.906-1s-1.027-1-1.073-1c-.046 0 .362.45.906 1m-10.291-.716c.206.04.543.04.75 0 .206-.04.037-.072-.375-.072-.413 0-.582.032-.375.072m-5.719.591-.49.541.542-.489c.298-.269.542-.513.542-.542 0-.129-.138-.015-.594.49m-54.531-.256c.252.038.664.038.916 0s.046-.069-.458-.069-.71.031-.458.069m-3.469 1.422-.49.542.542-.49c.298-.269.542-.512.542-.541 0-.129-.138-.016-.594.489m-.701 1.792c0 .321.034.452.076.292a1.37 1.37 0 0 0 0-.584c-.042-.16-.076-.029-.076.292m225.295-.115c0 .029.243.273.541.542l.542.49-.49-.542c-.456-.505-.593-.618-.593-.49m-158.551.537c-.257.226-.402.411-.321.411.081 0 .323-.187.538-.416.498-.531.388-.528-.217.005m161.044 1.786c.408.436.765.792.791.792.126 0-.007-.15-.743-.84l-.791-.743.743.791m-166.966-.354c.123.077.598.136 1.056.13.998-.012.832-.097-.389-.198-.52-.043-.797-.015-.667.068m-5.265.575c-.062.244-.08.476-.04.515.039.039.121-.128.182-.373.062-.244.08-.476.04-.515-.039-.039-.121.128-.182.373m5.216 1.848c-.209.254-.193.259.188.061.559-.29.601-.338.299-.338-.142 0-.361.125-.487.277m-42.436.973c.002.367.036.497.076.29a1.834 1.834 0 0 0-.004-.667c-.042-.159-.074.01-.072.377m214.041 1.417c1.097 1.1 2.032 2 2.078 2 .046 0-.814-.9-1.911-2s-2.033-2-2.078-2c-.046 0 .814.9 1.911 2m-237.36-.25c.001.733.03 1.012.066.62a8.34 8.34 0 0 0-.002-1.333c-.035-.341-.064-.021-.064.713M7.491 79.292l-.574.625.625-.575c.343-.316.625-.597.625-.625 0-.127-.141-.007-.676.575m226.625 2.96c-.153.32-.243.581-.201.581.114 0 .62-1.02.544-1.096-.036-.037-.191.195-.343.515M395 81.719c0 .029.244.272.542.541l.541.49-.489-.542c-.456-.505-.594-.618-.594-.489m-222.08 1.906c-.358.435-.478.642-.267.458.372-.324 1.096-1.25.977-1.25-.033 0-.352.357-.71.792m43.406.917c.691.736.841.868.841.743 0-.027-.357-.383-.792-.792l-.792-.743.743.792m15.661.833c-.494.573-.765.937-.604.809.34-.27 1.684-1.851 1.574-1.851-.04 0-.477.469-.97 1.042m-75.494.667c.409.435.765.791.792.791.125 0-.007-.149-.743-.84l-.792-.743.743.792m61.619-.029c.207.251 1.221.889 1.221.769 0-.039-.318-.281-.708-.538-.39-.257-.62-.361-.513-.231m-55.816 2.943a8.34 8.34 0 0 0 1.333-.002c.342-.035.021-.064-.712-.064-.734.001-1.013.03-.621.066m31.579 5.667c.435.034 1.148.034 1.583 0 .436-.035.079-.063-.791-.063-.871 0-1.227.028-.792.063m-13.797 6.085-.995 1.042 1.042-.995c.968-.924 1.118-1.088.995-1.088-.026 0-.495.468-1.042 1.041m29.172-.041c.544.55 1.027 1 1.073 1 .046 0-.362-.45-.906-1-.545-.55-1.027-1-1.073-1-.046 0 .362.45.906 1m139.917 9.75c-.229.131-.342.238-.25.238.091 0 .354-.107.583-.238.229-.131.342-.239.25-.239-.092 0-.354.108-.583.239m-305.688 1.208c-.208.265-.202.271.068.059.233-.184.385-.192.716-.042.585.267.739.228.237-.059-.552-.315-.747-.307-1.021.042m4.854-.042c.23.131.492.239.584.239.091 0-.021-.108-.25-.239s-.492-.238-.584-.238c-.091 0 .021.107.25.238m294.334 1.667c-.229.131-.342.238-.25.238.091 0 .354-.107.583-.238.229-.131.342-.238.25-.238-.092 0-.354.107-.583.238m3 .5c-.229.131-.342.238-.25.238.091 0 .354-.107.583-.238.229-.131.342-.238.25-.238-.092 0-.354.107-.583.238m-296.167.167c.229.131.492.238.583.238.092 0-.02-.107-.25-.238-.229-.131-.491-.239-.583-.239-.092 0 .021.108.25.239m4.167 0c.229.131.491.238.583.238.092 0-.021-.107-.25-.238s-.492-.239-.583-.239c-.092 0 .021.108.25.239m287 2c-.229.131-.342.238-.25.238.091 0 .354-.107.583-.238.229-.131.342-.239.25-.239-.092 0-.354.108-.583.239m-5.334.5c-.229.131-.341.238-.25.238.092 0 .355-.107.584-.238.229-.131.341-.239.25-.239-.092 0-.354.108-.584.239m-161.294.416c0 .321.034.452.076.292.042-.16.042-.423 0-.583-.042-.161-.076-.029-.076.291m-113.872-.083c.229.131.491.238.583.238.092 0-.021-.107-.25-.238s-.492-.238-.583-.238c-.092 0 .021.107.25.238m274 .167c-.229.131-.342.238-.25.238.091 0 .354-.107.583-.238.229-.131.342-.239.25-.239-.092 0-.354.108-.583.239m-277.334.166c.23.131.492.239.584.239.091 0-.021-.108-.25-.239s-.492-.238-.584-.238c-.091 0 .021.107.25.238m1.167.5c.229.131.492.239.583.239.092 0-.02-.108-.25-.239-.229-.131-.491-.238-.583-.238-.092 0 .021.107.25.238m276.167 1.167c-.229.131-.342.238-.25.238.091 0 .354-.107.583-.238.229-.131.342-.238.25-.238-.092 0-.354.107-.583.238m-5.334.5c-.229.131-.341.238-.25.238.092 0 .355-.107.584-.238.229-.131.341-.238.25-.238-.092 0-.354.107-.584.238m3 .5c-.229.131-.341.238-.25.238.092 0 .355-.107.584-.238.229-.131.341-.238.25-.238-.092 0-.354.107-.584.238m-264.333.167c.229.131.492.238.583.238.092 0-.02-.107-.25-.238-.229-.131-.491-.239-.583-.239-.092 0 .021.108.25.239m259.333 2c-.229.131-.341.238-.25.238.092 0 .355-.107.584-.238.229-.131.341-.239.25-.239-.092 0-.354.108-.584.239m-5.666.666c-.229.131-.342.239-.25.239.091 0 .354-.108.583-.239.229-.131.342-.238.25-.238-.092 0-.354.107-.583.238m4.166 0c-.229.131-.341.239-.25.239.092 0 .355-.108.584-.239.229-.131.341-.238.25-.238-.092 0-.354.107-.584.238m-5.333.5c-.229.131-.342.239-.25.239.092 0 .354-.108.583-.239.23-.131.342-.238.25-.238-.091 0-.354.107-.583.238m-246.5 1.25c.321.176.658.32.75.32.092 0-.096-.144-.417-.32-.321-.175-.658-.319-.75-.319-.091 0 .096.144.417.319m248-.083c-.229.131-.342.238-.25.238.092 0 .354-.107.583-.238.23-.131.342-.238.25-.238-.091 0-.354.107-.583.238m-243.667.167c.23.131.492.238.584.238.091 0-.021-.107-.25-.238s-.492-.239-.584-.239c-.091 0 .021.108.25.239m242.5.333c-.229.131-.341.238-.25.238.092 0 .355-.107.584-.238.229-.131.341-.238.25-.238-.092 0-.354.107-.584.238m-10.666 2.833c-.229.131-.342.239-.25.239.091 0 .354-.108.583-.239.229-.131.342-.238.25-.238-.092 0-.354.107-.583.238m-5 2.167c-.229.131-.342.238-.25.238.091 0 .354-.107.583-.238.229-.131.342-.238.25-.238-.092 0-.354.107-.583.238m-95.422.928c-.547.557-1.352 1.276-1.787 1.598-.436.323-.743.667-.683.764.063.102.032.13-.072.066-.1-.062-.633.179-1.185.536-1.389.898-3.875 1.96-5.81 2.483-1.73.468-8.481.737-8.724.348-.054-.087-.298-.109-.541-.048-.46.115-.653.926-.276 1.158.091.057.168.305.169.552.002.247.188.748.413 1.115.226.367.533.929.681 1.25.149.321.642.922 1.094 1.336.816.746 1.139 1.643 1.32 3.664.045.498.29-.603.306-1.375.017-.825.161-.971.524-.533.807.972 5.839 1.456 7.305.702.309-.159.625-.249.703-.201.244.151 1.034-.359 2.058-1.327.543-.513 1.081-.933 1.196-.933.114 0 .261-.168.326-.375.066-.206.399-.694.742-1.085.536-.609.641-.862.74-1.791.082-.769.184-1.082.353-1.082.192 0 .236-.394.236-2.083 0-1.596-.05-2.084-.216-2.084-.698 0-.192-1.166 1.046-2.413.685-.689 1.207-1.253 1.161-1.253-.046 0-.532.455-1.079 1.011M87.5 130.417c.229.131.492.238.583.238.092 0-.02-.107-.25-.238-.229-.131-.491-.239-.583-.239-.092 0 .021.108.25.239m219 .333c-.229.131-.342.238-.25.238.092 0 .354-.107.583-.238.23-.131.342-.238.25-.238-.091 0-.354.107-.583.238m76.333.667c.311.32.603.583.649.583.046 0-.171-.263-.482-.583-.311-.321-.603-.584-.649-.584-.046 0 .171.263.482.584m-288.5.166c.23.131.492.239.584.239.091 0-.021-.108-.25-.239s-.492-.238-.584-.238c-.091 0 .021.107.25.238m-1.833 1c.229.131.492.239.583.239.092 0-.02-.108-.25-.239-.229-.131-.491-.238-.583-.238-.092 0 .021.107.25.238m115.333-.186c0 .036-.206.197-.458.36l-.458.295.317-.36c.281-.317.599-.474.599-.295m176.834.686c.311.321.603.584.648.584.046 0-.171-.263-.482-.584-.311-.321-.603-.583-.648-.583-.046 0 .171.262.482.583m-83.5 0c-.229.131-.342.239-.25.239.091 0 .354-.108.583-.239.229-.131.342-.238.25-.238-.092 0-.354.107-.583.238m-286.509.875-.575.625.625-.574c.582-.535.702-.676.575-.676-.028 0-.309.282-.625.625m82.842.792c.229.131.492.238.583.238.092 0-.02-.107-.25-.238-.229-.131-.491-.238-.583-.238-.092 0 .021.107.25.238m292 3c1.602 1.604 2.951 2.917 2.996 2.917.046 0-1.227-1.313-2.829-2.917-1.603-1.604-2.951-2.917-2.997-2.917-.046 0 1.228 1.313 2.83 2.917m-99-1.833c-.229.131-.342.238-.25.238.092 0 .354-.107.583-.238.23-.131.342-.239.25-.239-.091 0-.354.108-.583.239m-101.583.061c.183.08.595.193.916.251.401.073.479.06.25-.04a5.274 5.274 0 0 0-.916-.252c-.401-.072-.479-.06-.25.041m-177.675 1.23-.659.709.709-.659c.389-.363.708-.681.708-.708 0-.127-.145 0-.758.658m91.591-.125c.23.131.492.239.584.239.091 0-.021-.108-.25-.239s-.492-.238-.584-.238c-.091 0 .021.107.25.238m4.167 0c.229.131.492.239.583.239.092 0-.02-.108-.25-.239-.229-.131-.491-.238-.583-.238-.092 0 .021.107.25.238m176.167 2c-.229.131-.342.239-.25.239.091 0 .354-.108.583-.239.229-.131.342-.238.25-.238-.092 0-.354.107-.583.238m-169.667.834c.229.131.492.238.583.238.092 0-.02-.107-.25-.238-.229-.131-.491-.239-.583-.239-.092 0 .021.108.25.239m-1.833 1c.229.131.491.238.583.238.092 0-.021-.107-.25-.238s-.492-.239-.583-.239c-.092 0 .021.108.25.239m-104.758.791-.659.709.708-.659c.659-.613.785-.758.659-.758-.027 0-.346.319-.708.708m387.008.625c.358.367.688.667.734.667.046 0-.21-.3-.568-.667-.358-.366-.688-.666-.734-.666-.046 0 .21.3.568.666m-118.417.084c-.229.131-.342.238-.25.238.092 0 .354-.107.583-.238.23-.131.342-.239.25-.239-.091 0-.354.108-.583.239m120.167 1.833c.311.321.603.583.648.583.046 0-.171-.262-.482-.583-.311-.321-.603-.583-.648-.583-.046 0 .171.262.482.583M122 145.417c.229.131.492.238.583.238.092 0-.02-.107-.25-.238-.229-.131-.491-.239-.583-.239-.092 0 .021.108.25.239m150 .333c-.229.131-.342.238-.25.238.092 0 .354-.107.583-.238.23-.131.342-.238.25-.238-.091 0-.354.107-.583.238m-5.333.5c-.229.131-.342.238-.25.238.091 0 .354-.107.583-.238.229-.131.342-.238.25-.238-.092 0-.354.107-.583.238m-136 2.917c.32.175.658.319.75.319.091 0-.096-.144-.417-.319-.321-.176-.658-.32-.75-.32-.092 0 .096.144.417.32m128.333.416c-.229.131-.342.239-.25.239.092 0 .354-.108.583-.239.23-.131.342-.238.25-.238-.091 0-.354.107-.583.238m4.167 0c-.229.131-.342.239-.25.239.091 0 .354-.108.583-.239.229-.131.342-.238.25-.238-.092 0-.354.107-.583.238M132 149.75c.229.131.492.238.583.238.092 0-.02-.107-.25-.238-.229-.131-.491-.238-.583-.238-.092 0 .021.107.25.238m4.167 0c.229.131.491.238.583.238.092 0-.021-.107-.25-.238s-.492-.238-.583-.238c-.092 0 .021.107.25.238m-.334 1.667c.23.131.492.238.584.238.091 0-.021-.107-.25-.238s-.492-.239-.584-.239c-.091 0 .021.108.25.239m122 .5c-.229.131-.341.238-.25.238.092 0 .355-.107.584-.238.229-.131.341-.239.25-.239-.092 0-.354.108-.584.239m-238.458 2.031c.16.042.423.042.583 0 .161-.042.029-.076-.291-.076-.321 0-.452.034-.292.076m355.833 0c.161.042.423.042.584 0 .16-.042.029-.076-.292-.076s-.452.034-.292.076m-354.333.167c.16.042.423.042.583 0 .161-.042.03-.076-.291-.076-.321 0-.452.034-.292.076m352.752.003c.207.04.507.038.667-.003.159-.042-.011-.075-.377-.073-.367.002-.497.036-.29.076m-355.767.757c-.025.582.005.623.432.602.378-.018.394-.035.093-.093-.266-.052-.384-.217-.432-.603-.064-.51-.067-.507-.093.094m7.434-.257c.207.04.507.038.666-.003.16-.042-.01-.075-.377-.073-.366.002-.497.036-.289.076m344 0c.207.04.507.038.666-.003.16-.042-.01-.075-.377-.073-.366.002-.497.036-.289.076m7.873.287c0 .288-.109.426-.375.477-.322.062-.31.076.083.095.403.02.458-.037.458-.477 0-.275-.037-.5-.083-.5-.046 0-.083.182-.083.405m-350.373-.12c.207.039.507.038.666-.004.16-.042-.01-.074-.377-.072-.366.002-.497.036-.289.076m340.914-.003c.161.041.423.041.584 0 .16-.042.029-.077-.292-.077s-.452.035-.292.077m-336.5.5c.161.041.423.041.584 0 .16-.042.029-.077-.292-.077s-.452.035-.292.077m332.167 0c.16.041.423.041.583 0 .161-.042.03-.077-.291-.077-.321 0-.452.035-.292.077m-330.667.166c.161.042.423.042.584 0 .16-.042.029-.076-.292-.076s-.452.034-.292.076m329.167 0c.16.042.423.042.583 0 .161-.042.03-.076-.291-.076-.321 0-.452.034-.292.076m-324.833.5c.16.042.423.042.583 0 .16-.042.029-.076-.292-.076s-.452.034-.291.076m320.5 0c.16.042.423.042.583 0 .16-.042.029-.076-.292-.076s-.452.034-.291.076m14.752.003c.207.04.507.039.666-.003.16-.042-.01-.074-.377-.073-.366.002-.497.036-.289.076m-348.586.164c.161.042.423.042.584 0 .16-.042.029-.076-.292-.076s-.452.034-.292.076m14.919.003c.207.04.507.038.667-.003.159-.042-.011-.075-.377-.073-.367.002-.497.036-.29.076m317.333 0c.208.04.508.038.667-.003.159-.042-.01-.075-.377-.073-.367.002-.497.036-.29.076m13.415.164c.16.041.423.041.583 0 .161-.042.03-.077-.291-.077-.321 0-.452.035-.292.077m-326.415.336c.208.04.508.038.667-.003.159-.042-.01-.075-.377-.073-.367.002-.497.036-.29.076m308.748-.003c.161.042.423.042.584 0 .16-.042.029-.076-.292-.076s-.452.034-.292.076m14.667 0c.16.042.423.042.583 0 .161-.042.03-.076-.291-.076-.321 0-.452.034-.292.076m-336.667.167c.161.041.423.041.584 0 .16-.042.029-.077-.292-.077s-.452.035-.292.077m14.752.003c.208.039.508.038.667-.004.159-.042-.01-.074-.377-.072-.367.002-.497.036-.29.076m305.582-.003c.16.041.423.041.583 0 .16-.042.029-.077-.292-.077s-.452.035-.291.077m15 0c.16.041.423.041.583 0 .16-.042.029-.077-.292-.077s-.452.035-.291.077m-331 .5c.16.041.423.041.583 0 .16-.042.029-.077-.292-.077s-.452.035-.291.077m14.752.003c.207.039.507.038.666-.004.16-.042-.01-.074-.377-.072-.366.002-.497.036-.289.076m297 0c.207.039.507.038.666-.004.16-.042-.01-.074-.377-.072-.366.002-.497.036-.289.076m14.914-.003c.161.041.423.041.584 0 .16-.042.029-.077-.292-.077s-.452.035-.292.077m-325.166.166c.16.042.423.042.583 0 .16-.042.029-.076-.292-.076s-.452.034-.291.076m14.833 0c.16.042.423.042.583 0 .161-.042.029-.076-.291-.076-.321 0-.452.034-.292.076m293.833 0c.161.042.423.042.584 0 .16-.042.029-.076-.292-.076s-.452.034-.292.076m14.834 0c.16.042.423.042.583 0 .16-.042.029-.076-.292-.076s-.452.034-.291.076m-319.082.503c.208.04.508.039.667-.003.159-.042-.01-.074-.377-.073-.367.002-.497.036-.29.076m14.748-.003c.161.042.423.042.584 0 .16-.042.029-.076-.292-.076s-.452.034-.292.076m285.167 0c.16.042.423.042.583 0 .161-.042.029-.076-.291-.076-.321 0-.452.034-.292.076m14.833 0c.161.042.423.042.584 0 .16-.042.029-.076-.292-.076s-.452.034-.292.076m-313.333.167c.16.042.423.042.583 0 .161-.042.029-.076-.291-.076-.321 0-.452.034-.292.076m14.833 0c.161.042.423.042.584 0 .16-.042.029-.076-.292-.076s-.452.034-.292.076m297 0c.161.042.423.042.584 0 .16-.042.029-.076-.292-.076s-.452.034-.292.076m-307.333.5c.16.042.423.042.583 0 .161-.042.029-.076-.291-.076-.321 0-.452.034-.292.076m14.667 0c.16.042.423.042.583 0 .16-.042.029-.076-.292-.076s-.452.034-.291.076m273.5 0c.16.042.423.042.583 0 .16-.042.029-.076-.292-.076s-.452.034-.291.076m14.833 0c.16.042.423.042.583 0 .161-.042.03-.076-.291-.076-.321 0-.452.034-.292.076m-301.5.167c.16.041.423.041.583 0 .161-.042.029-.077-.291-.077-.321 0-.452.035-.292.077m300 0c.16.041.423.041.583 0 .161-.042.03-.077-.291-.077-.321 0-.452.035-.292.077m-295.667.5c.161.041.423.041.584 0 .16-.042.029-.077-.292-.077s-.452.035-.292.077m14.667 0c.16.041.423.041.583 0 .161-.042.029-.077-.291-.077-.321 0-.452.035-.292.077m261.752.003c.207.039.507.038.667-.004.159-.042-.011-.074-.377-.072-.367.002-.497.036-.29.076m14.748-.003c.16.041.423.041.583 0 .161-.042.03-.077-.291-.077-.321 0-.452.035-.292.077m-289.667.166c.161.042.423.042.584 0 .16-.042.029-.076-.292-.076s-.452.034-.292.076m273.334 0c.16.042.423.042.583 0 .16-.042.029-.076-.292-.076s-.452.034-.291.076m-269 .5c.16.042.423.042.583 0 .16-.042.029-.076-.292-.076s-.452.034-.291.076m14.752.003c.207.04.507.039.666-.003.16-.042-.01-.074-.377-.073-.366.002-.497.036-.289.076m250 0c.207.04.507.039.666-.003.16-.042-.01-.074-.377-.073-.366.002-.497.036-.289.076m14.748-.003c.16.042.423.042.583 0 .16-.042.029-.076-.292-.076s-.452.034-.291.076m-278 .167c.16.042.423.042.583 0 .16-.042.029-.076-.292-.076s-.452.034-.291.076m14.833 0c.16.042.423.042.583 0 .161-.042.029-.076-.291-.076-.321 0-.452.034-.292.076m246.833 0c.161.042.423.042.584 0 .16-.042.029-.076-.292-.076s-.452.034-.292.076m14.834 0c.16.042.423.042.583 0 .16-.042.029-.076-.292-.076s-.452.034-.291.076m-273.5.333c.16.042.423.042.583 0 .16-.042.029-.076-.292-.076s-.452.034-.291.076m270.5 0c.16.042.423.042.583 0 .16-.042.029-.076-.292-.076s-.452.034-.291.076m-269.082.17c.208.04.508.038.667-.003.159-.042-.01-.075-.377-.073-.367.002-.497.036-.29.076m14.748-.003c.161.042.423.042.584 0 .16-.042.029-.076-.292-.076s-.452.034-.292.076m238.167 0c.16.042.423.042.583 0 .161-.042.029-.076-.291-.076-.321 0-.452.034-.292.076m-251.5.167c.16.041.423.041.583 0 .161-.042.029-.077-.291-.077-.321 0-.452.035-.292.077m14.833 0c.161.041.423.041.584 0 .16-.042.029-.077-.292-.077s-.452.035-.292.077m250 0c.161.041.423.041.584 0 .16-.042.029-.077-.292-.077s-.452.035-.292.077m-260.333.5c.16.041.423.041.583 0 .161-.042.029-.077-.291-.077-.321 0-.452.035-.292.077m14.667 0c.16.041.423.041.583 0 .16-.042.029-.077-.292-.077s-.452.035-.291.077m226.418.003c.208.039.508.038.667-.004.159-.042-.01-.074-.377-.072-.367.002-.497.036-.29.076m14.748-.003c.161.041.423.041.584 0 .16-.042.029-.077-.292-.077s-.452.035-.292.077m-254.5.166c.161.042.423.042.584 0 .16-.042.029-.076-.292-.076s-.452.034-.292.076m14.834 0c.16.042.423.042.583 0 .16-.042.029-.076-.292-.076-.32 0-.452.034-.291.076m238.166 0c.161.042.423.042.584 0 .16-.042.029-.076-.292-.076s-.452.034-.292.076m-248.5.5c.161.042.423.042.584 0 .16-.042.029-.076-.292-.076s-.452.034-.292.076m14.752.003c.208.04.508.039.667-.003.159-.042-.01-.074-.377-.073-.367.002-.497.036-.29.076m214.582-.003c.16.042.423.042.583 0 .16-.042.029-.076-.292-.076s-.452.034-.291.076m-227.834.167c.161.042.423.042.584 0 .16-.042.029-.076-.292-.076s-.452.034-.292.076m4.5.5c.161.042.423.042.584 0 .16-.042.029-.076-.292-.076s-.452.034-.292.076m14.667 0c.16.042.423.042.583 0 .161-.042.029-.076-.291-.076-.321 0-.452.034-.292.076m202.919.003c.207.04.507.038.666-.003.16-.042-.01-.075-.377-.073-.366.002-.497.036-.289.076m14.748-.003c.16.042.423.042.583 0 .16-.042.029-.076-.292-.076s-.452.034-.291.076m-231 .167c.16.041.423.041.583 0 .16-.042.029-.077-.292-.077s-.452.035-.291.077m14.833 0c.16.041.423.041.583 0 .161-.042.029-.077-.291-.077-.321 0-.452.035-.292.077m199.833 0c.161.041.423.041.584 0 .16-.042.029-.077-.292-.077s-.452.035-.292.077m14.834 0c.16.041.423.041.583 0 .16-.042.029-.077-.292-.077s-.452.035-.291.077m-225 .5c.16.041.423.041.583 0 .16-.042.029-.077-.292-.077-.32 0-.452.035-.291.077m14.666 0c.161.041.423.041.584 0 .16-.042.029-.077-.292-.077s-.452.035-.292.077m191.167 0c.16.041.423.041.583 0 .161-.042.029-.077-.291-.077-.321 0-.452.035-.292.077m-189.667.166c.161.042.423.042.584 0 .16-.042.029-.076-.292-.076s-.452.034-.292.076m188.167 0c.16.042.423.042.583 0 .161-.042.029-.076-.291-.076-.321 0-.452.034-.292.076m-183.833.5c.16.042.423.042.583 0 .16-.042.029-.076-.292-.076-.32 0-.452.034-.291.076m179.333 0c.16.042.423.042.583 0 .161-.042.029-.076-.291-.076-.321 0-.452.034-.292.076m14.833 0c.161.042.423.042.584 0 .16-.042.029-.076-.292-.076s-.452.034-.292.076m-203 .667c.161.042.423.042.584 0 .16-.042.029-.076-.292-.076s-.452.034-.292.076m14.919.003c.207.04.507.038.667-.003.159-.042-.011-.075-.377-.073-.367.002-.497.036-.29.076m167.415-.003c.16.042.423.042.583 0 .16-.042.029-.076-.292-.076s-.452.034-.291.076m-166 .167c.16.041.423.041.583 0 .16-.042.029-.077-.292-.077-.32 0-.452.035-.291.077m179.333 0c.16.041.423.041.583 0 .161-.042.029-.077-.291-.077-.321 0-.452.035-.292.077m-189.667.5c.161.041.423.041.584 0 .16-.042.029-.077-.292-.077s-.452.035-.292.077m14.667 0c.16.041.423.041.583 0 .161-.042.029-.077-.291-.077-.321 0-.452.035-.292.077m155.752.003c.207.039.507.038.667-.004.159-.042-.011-.074-.377-.072-.367.002-.497.036-.29.076m14.833 0c.208.039.508.038.667-.004.159-.042-.01-.074-.377-.072-.367.002-.497.036-.29.076m-169.085.163c.16.042.423.042.583 0 .161-.042.029-.076-.291-.076-.321 0-.452.034-.292.076m152.833 0c.161.042.423.042.584 0 .16-.042.029-.076-.292-.076s-.452.034-.292.076m-163.166.5c.16.042.423.042.583 0 .16-.042.029-.076-.292-.076-.32 0-.452.034-.291.076m14.752.003c.207.04.507.039.666-.003.16-.042-.01-.074-.377-.073-.366.002-.497.036-.289.076m143.914-.003c.161.042.423.042.584 0 .16-.042.029-.076-.292-.076s-.452.034-.292.076m14.834 0c.16.042.423.042.583 0 .16-.042.029-.076-.292-.076s-.452.034-.291.076m-172 .167c.16.042.423.042.583 0 .16-.042.029-.076-.292-.076-.32 0-.452.034-.291.076m14.666 0c.161.042.423.042.584 0 .16-.042.029-.076-.292-.076s-.452.034-.292.076m155.834 0c.16.042.423.042.583 0 .16-.042.029-.076-.292-.076s-.452.034-.291.076m-166.167.5c.16.042.423.042.583 0 .161-.042.029-.076-.291-.076-.321 0-.452.034-.292.076m14.752.003c.207.04.507.038.667-.003.159-.042-.011-.075-.377-.073-.367.002-.497.036-.29.076m132.248-.003c.16.042.423.042.583 0 .161-.042.029-.076-.291-.076-.321 0-.452.034-.292.076m14.833 0c.161.042.423.042.584 0 .16-.042.029-.076-.292-.076s-.452.034-.292.076m-16.333.167c.16.041.423.041.583 0 .161-.042.029-.077-.291-.077-.321 0-.452.035-.292.077m-139.581.503c.207.039.507.038.666-.004.16-.042-.01-.074-.377-.072-.366.002-.497.036-.289.076m135.264.139c-.055.141-.052.304.005.361.057.057.104-.016.104-.162 0-.147.168-.299.375-.339l.375-.072-.381-.023c-.209-.012-.424.093-.478.235m14.736-.139c.207.039.507.038.666-.004.16-.042-.01-.074-.377-.072-.366.002-.497.036-.289.076m-1.586.163c.161.042.423.042.584 0 .16-.042.029-.076-.292-.076s-.452.034-.292.076m-142.5.5c.161.042.423.042.584 0 .16-.042.029-.076-.292-.076s-.452.034-.292.076m9.148.33c-.012.29-.116.565-.231.612-.163.065-.162.087.005.097.275.017.417-.357.323-.85-.058-.302-.079-.272-.097.141m129.104-.327c.208.04.508.039.667-.003.159-.042-.01-.074-.377-.073-.367.002-.497.036-.29.076m-136.752.164c.161.042.423.042.584 0 .16-.042.029-.076-.292-.076s-.452.034-.292.076m4.334.5c.16.042.423.042.583 0 .16-.042.029-.076-.292-.076s-.452.034-.291.076m126.5 0c.16.042.423.042.583 0 .16-.042.029-.076-.292-.076s-.452.034-.291.076m-125 .167c.16.041.423.041.583 0 .16-.042.029-.077-.292-.077s-.452.035-.291.077m123.5 0c.16.041.423.041.583 0 .16-.042.029-.077-.292-.077s-.452.035-.291.077m-1.318 23.142c-.054.141-.052.304.005.361.058.057.104-.016.104-.162 0-.146.132-.3.292-.341.273-.072.273-.078-.005-.096-.164-.011-.342.096-.396.238m9.359 3.909c.184.079.484.141.667.139.268-.004.252-.031-.083-.139-.57-.182-1.008-.182-.584 0M290.167 200c.57.183 1.008.183.583 0a1.936 1.936 0 0 0-.667-.138c-.268.004-.251.031.084.138m-4.084.667c.184.078.446.143.584.143.157 0 .126-.053-.084-.143a1.832 1.832 0 0 0-.583-.144c-.158 0-.127.053.083.144m66.167 15.166c.183.079.446.144.583.144.158 0 .127-.053-.083-.144a1.854 1.854 0 0 0-.583-.143c-.158 0-.127.053.083.143m17.667 4.5c.183.079.446.144.583.144.158 0 .127-.053-.083-.144a1.86 1.86 0 0 0-.584-.143c-.157 0-.126.053.084.143"/></g></svg>