<?xml version="1.0" standalone="no"?><!DOCTYPE svg PUBLIC "-//W3C//DTD SVG 1.1//EN" "http://www.w3.org/Graphics/SVG/1.1/DTD/svg11.dtd"><svg t="1723274535159" class="icon" viewBox="0 0 1024 1024" version="1.1" xmlns="http://www.w3.org/2000/svg" p-id="13675" xmlns:xlink="http://www.w3.org/1999/xlink" width="16" height="16"><path d="M286.784 639.36a192 192 0 0 1 192.448-191.168v114.688a76.8 76.8 0 0 0-76.992 76.416c0 37.568 20.48 78.016 65.408 78.016 2.944 0 73.152-0.64 73.152-59.968V222.592h123.072c0.128 57.088 46.72 103.296 104.128 103.36l-0.128 114.496a214.784 214.784 0 0 1-111.552-30.272v247.168c0 113.408-97.28 174.656-188.736 174.656-103.04 0-180.8-82.816-180.8-192.64z" fill="#FF4040" p-id="13676"></path><path d="M256 608.768a192 192 0 0 1 192.448-191.168v114.688A76.8 76.8 0 0 0 371.456 608.64c0 37.568 20.48 78.016 65.408 78.016 2.944 0 73.152-0.64 73.152-59.968V192h123.072c0.128 57.088 46.72 103.296 104.128 103.36l-0.128 114.496a214.784 214.784 0 0 1-111.552-30.272v247.168c0 113.408-97.28 174.656-188.736 174.656-103.04 0-180.8-82.816-180.8-192.64z" fill="#00F5FF" p-id="13677"></path><path d="M448.448 450.496c-124.224 15.616-222.528 173.056-120.576 314.688 94.208 76.544 292.352 32 297.856-133.504l-0.128-251.904a220.8 220.8 0 0 0 111.808 30.016V321.152a113.344 113.344 0 0 1-56.96-42.56 105.152 105.152 0 0 1-42.88-56.32h-96.64L540.8 658.56c-0.064 60.992-102.464 82.688-128.448 23.552-65.088-30.912-50.368-148.416 36.224-149.696l-0.128-81.92z" fill="#FFFFFF" p-id="13678"></path><path d="M0 512a512 512 0 1 0 1024 0A512 512 0 0 0 0 512z" fill="#F2F3F5" p-id="13679"></path><path d="M318.592 150.656c-3.328 2.112-7.36 4.224-10.688 6.4 4.096-2.176 7.36-4.288 10.688-6.4z m576.512 331.84s0-2.176 0 0c-6.4-4.224-6.4-4.224-6.4-6.4 0 2.176 0 2.176 6.4 6.4 0 0 0-2.176 0 0z" fill="#FDF9FB" opacity=".54" p-id="13680"></path><path d="M883.84 510.4a34.112 34.112 0 0 1-19.584 11.392l-251.2 45.696-41.664 7.36a24.384 24.384 0 0 0 14.72-39.168l-0.832-0.832L482.56 412.48l-26.88-32.64-149.312-176.192c-17.088-19.584-49.792-12.16-56.32 12.224 3.328-18.752 13.888-35.072 27.008-46.464l2.368-2.432 2.496-2.432 12.16-7.36c2.432-0.832 4.16-1.664 6.592-2.432 2.432-0.832 4.032-1.664 6.528-2.432 3.2-0.832 6.528-1.664 10.624-2.56 8.64-0.896 17.472-0.64 26.048 0.896 4.928 1.6 8.192 2.432 11.52 3.2 4.8 2.432 10.56 4.16 15.36 7.424L506.24 239.552l349.952 202.24c3.2 1.664 6.528 4.16 9.728 6.592 1.664 0.768 2.432 2.432 4.096 3.2h0.832l2.368 2.496 2.496 2.432 1.664 1.664c0.768 0.832 1.664 1.6 2.432 3.2a16.704 16.704 0 0 1 2.432 4.096c0.832 0.896 1.664 1.664 1.664 3.264 1.6 2.432 3.2 5.76 4.864 9.024 0 0.832 0.832 0.832 0.832 1.6v1.6c0 0.832 0.832 1.664 0.832 2.496v0.832c2.368 8.96 0 18.752-6.528 26.112z" fill="#EF8934" p-id="13681"></path><path d="M896 516.096c0 1.6 0 3.2-0.704 4.864 0 1.664 0 2.432-0.832 4.096 0 1.664-0.896 4.032-0.896 5.696 0 1.664-0.768 2.432-0.768 3.264-0.832 2.432-1.6 4.096-1.6 6.528-0.832 1.664-0.832 2.432-1.664 4.096v0.768c-0.832 1.664-0.832 2.432-1.6 4.096-0.832 0.832-0.832 1.664-1.664 3.264a17.6 17.6 0 0 1-2.432 4.096c-0.832 1.664-1.664 2.432-2.432 4.096-0.832 0.768-1.664 1.664-1.664 2.432-0.768 0.832-1.664 2.368-2.432 3.2a24.896 24.896 0 0 1-6.528 6.592 14.336 14.336 0 0 1-4.032 3.264c-3.328 2.432-6.592 4.032-9.856 6.528l-155.776 88.896-330.368 190.848a83.2 83.2 0 0 1-40.768 11.52h-5.76c-1.6 0-4.032-0.896-5.632-0.896a32.32 32.32 0 0 1-24.512-43.264l79.168-219.392 14.72-39.936a24.704 24.704 0 0 0 27.648 32.64l157.44-28.544 41.6-7.36 251.2-45.696a34.112 34.112 0 0 0 19.584-11.392c6.592-7.68 8.96-17.984 6.528-27.712v-0.896c0-0.832-0.768-1.6-0.768-2.368 3.2 12.16 5.76 24.448 4.864 36.672z" fill="#BD34F6" p-id="13682"></path><path d="M482.496 412.48a24.384 24.384 0 0 0-41.6 7.36l-54.592 150.912-14.72 40-78.272 219.328c-6.592 18.816 4.864 40 24.448 43.264a77.504 77.504 0 0 1-39.168-17.088c-1.6-1.664-4.096-3.328-5.76-4.928a11.264 11.264 0 0 0-3.2-2.432 11.2 11.2 0 0 1-2.432-3.2c-0.832-0.896-1.664-1.664-1.664-2.56l-2.432-2.368a71.936 71.936 0 0 1-4.928-8.192c-0.768-0.832-0.768-1.6-1.664-3.2a87.36 87.36 0 0 1-7.232-22.08c0-1.664-0.896-2.432-0.896-4.096 0-1.664-0.832-4.032-0.832-6.528V225.664c0-2.432 0.832-4.864 0.832-7.296 0-0.832 0-1.664 0.896-3.264 6.464-24.448 39.104-31.808 56.256-12.224l149.248 176.192 27.712 33.408z" fill="#EA3228" p-id="13683"></path></svg>