<?xml version="1.0" standalone="no"?><!DOCTYPE svg PUBLIC "-//W3C//DTD SVG 1.1//EN"
    "http://www.w3.org/Graphics/SVG/1.1/DTD/svg11.dtd">
<svg t="1728736521838" class="icon" viewBox="0 0 1024 1024" version="1.1"
    xmlns="http://www.w3.org/2000/svg" p-id="4364" xmlns:xlink="http://www.w3.org/1999/xlink"
    width="4" height="4">
    <path d="M512 512m-512 0a512 512 0 1 0 1024 0 512 512 0 1 0-1024 0Z" fill="#F88700"
        p-id="4365"></path>
    <path
        d="M682.5472 262.1952a112.0256 112.0256 0 0 0-90.1632 47.9232 158.2592 158.2592 0 0 0-149.3504-126.8224 166.656 166.656 0 0 0 0 332.4928h14.08l225.28-11.264a116.8896 116.8896 0 0 0 112.64-121.1904 113.408 113.408 0 0 0-112.4864-121.1392z m-293.0688 90.1632a79.616 79.616 0 1 1 78.8992 90.1632 83.5584 83.5584 0 0 1-78.8992-90.1632z m312.7808 87.3472a56.7808 56.7808 0 0 1-53.5552-59.1872 57.344 57.344 0 0 1 50.7392-62.0032 56.7808 56.7808 0 0 1 53.5552 59.1872 57.344 57.344 0 0 1-50.7392 62.0032z m-270.4896 152.1664a87.04 87.04 0 0 0-53.5552-22.528c-39.424-5.632-95.7952-14.08-95.7952-14.08s-42.2912-8.448-47.9232 30.976a908.6976 908.6976 0 0 0-2.816 174.6944 67.84 67.84 0 0 0 53.5552 53.5552c11.264 5.632 81.92 25.6 92.9792 28.16a48.7424 48.7424 0 0 0 56.32-19.712c22.528-30.976 70.4512-95.7952 70.4512-95.7952l5.632-8.448v-42.2912z m-39.4752 177.5104c0 5.632 0 14.08-8.448 16.896a97.28 97.28 0 0 1-33.792-2.816 206.2336 206.2336 0 0 1-59.1872-19.712 22.8352 22.8352 0 0 1-14.08-19.712 361.5744 361.5744 0 0 1-2.816-76.0832c0-22.528 2.816-50.7392 2.816-50.7392 0-8.448 5.632-14.08 14.08-11.264a178.2272 178.2272 0 0 1 42.2912 5.632 216.0128 216.0128 0 0 1 53.5552 14.08 20.8384 20.8384 0 0 1 11.264 19.712s2.816 30.976 2.816 62.0032c-5.6832 28.2112-8.4992 62.0032-8.4992 62.0032z"
        fill="#FFFFFF" p-id="4366"></path>
    <path
        d="M530.3808 651.0592l-78.8992-81.92a12.3392 12.3392 0 0 1 5.632-16.896c11.264-8.448 19.712-8.448 56.32-11.264s166.2464-25.6 239.5136-5.632c22.528 5.632 22.528 30.976 22.528 45.1072s-2.816 16.896-11.264 16.896c-11.264 0-95.7952 16.896-107.0592 19.712s-25.6 8.448-22.528 36.608v53.5552c0 5.632 0 25.6 14.08 25.6a137.4208 137.4208 0 0 0 39.4752-8.448c8.448-2.816 14.08-2.816 14.08-8.448 0-8.448 2.816-16.896-8.448-16.896-11.264 2.816-30.976 5.632-30.976 5.632v-59.3408s81.92-19.712 112.64-22.528v104.448c0 8.448 0 28.16-39.4752 36.608-39.424 11.264-107.0592 25.6-121.1392 28.16a146.7904 146.7904 0 0 1-118.3232-8.448l45.1072-62.0032 2.816-45.1072a45.7216 45.7216 0 0 0-14.08-25.3952z"
        fill="#FFFFFF" p-id="4367"></path>
</svg>