<?xml version="1.0" standalone="no"?><!DOCTYPE svg PUBLIC "-//W3C//DTD SVG 1.1//EN" "http://www.w3.org/Graphics/SVG/1.1/DTD/svg11.dtd"><svg t="1723274568283" class="icon" viewBox="0 0 1024 1024" version="1.1" xmlns="http://www.w3.org/2000/svg" p-id="14905" xmlns:xlink="http://www.w3.org/1999/xlink" width="16" height="16"><path d="M470.296922 2.181499a60.506698 60.506698 0 0 1 12.706407-2.094462h58.226061c9.541441-0.51198 18.80362 3.164966 28.484691 2.652986a23.318351 23.318351 0 0 1 11.635904 3.490771 22.434022 22.434022 0 0 1-1.02396 4.980166c-2.327181 0.372349-4.654361 0.558523-6.981542 0.651611-1.67557 0.651611-3.444227 1.16359-5.119797 1.722114a49.103513 49.103513 0 0 1-11.635904 0.837785 25.040464 25.040464 0 0 1-12.892581 2.652986c-1.768657 0.651611-3.537315 1.117047-5.305972 1.629026-1.722114 0.465436-3.444227 0.837785-5.166341 1.210134-3.444227 0.930872-6.888455 1.861745-10.472313 2.513355a28.763953 28.763953 0 0 1-10.42577 2.373725 17.453855 17.453855 0 0 1-9.029461 2.652986 40.539488 40.539488 0 0 1-9.122548 2.652986c-5.305972 1.489396-10.239595 4.188925-15.592111 5.166341-31.184221 11.915165-62.042637 25.5059-89.596457 44.356064-9.448354 5.957583-18.617446 12.334058-27.460732 19.222512-6.981542 6.097213-13.963084 12.194427-21.130801 18.058923l-26.52986 26.52986c-10.239595 12.75295-21.410062 24.668115-30.346436 38.538112a422.010948 422.010948 0 0 0-39.887877 71.537535c-2.373724 6.05067-4.793992 11.961709-7.633153 17.872747-9.169092 24.668115-16.662614 49.987841-22.387478 75.72646-0.465436 6.283388-3.258053 12.10134-3.118422 18.384728 0 4.514731-3.025335 8.377851-2.513355 13.032212 0.51198 5.771408-2.792617 10.984293-2.606443 16.662613 0.186174 6.143757-1.489396 11.961709-2.373724 18.012379-0.698154 6.423019 0.651611 13.032212-1.02396 19.362143-1.256678 6.516106 0.465436 13.26493-1.117046 19.734493-0.698154 4.188925-0.930872 8.517481-0.651611 12.799494 0.139631 5.492146-0.558523 11.030837 0.837785 16.429895 1.442852 8.796743-0.791241 17.826204 1.442852 26.52986 0.977416 8.145132-0.465436 16.476439 0.744698 24.621572 1.070503 3.770033 0.605067 7.819327 1.303221 11.635904 2.094463 8.052045-0.465436 16.569527 1.815201 24.575028 0.465436 5.166341 0 10.42577 1.489396 15.45248 0.325805 11.170467 0 22.340935 0.186174 33.557945-1.861745 20.246472-9.727615 39.562072-22.527109 55.340357-16.336808 17.686573-38.6312 28.857041-62.601161 31.323852-8.331307 0-16.476439 0.139631-24.714659-0.186174a103.885346 103.885346 0 0 1-34.90771-12.520232c-9.774159-4.793992-17.034963-13.032212-25.133552-20.013754-8.052045-10.146508-15.731742-21.316975-18.338184-34.209556a450.262921 450.262921 0 0 1-18.757076-110.215278c-1.535939-7.167717-0.837785-14.614695-0.930872-21.968586 0.093087-5.771408-0.51198-11.58936 0.605067-17.221137 1.67557-8.564025-0.325805-17.407312 1.303221-25.971337 1.67557-11.07738 2.047919-22.201304 4.188925-33.185597 0-5.771408 2.327181-11.030837 2.932248-16.709157 16.10409-80.287734 50.267103-157.596677 102.395951-221.221797 5.259428-6.748824 10.891206-13.218386 16.848788-19.362144 10.006877-12.380601 22.061673-22.946002 33.045966-34.349187 9.960333-8.098589 18.989794-17.314224 29.275933-25.040464 14.42852-11.635903 29.415564-22.573653 45.054218-32.58053 15.824829-9.215636 31.277309-19.082882 48.126097-26.716034C309.907628 39.509478 337.833797 30.01458 365.759965 21.217837c8.843287-2.652986 17.919291-4.421643 26.669491-7.446978 6.236844-0.325805 11.915165-2.932248 18.152009-3.304597 3.86312-0.51198 7.446978-2.373724 11.403186-2.373724 5.724865 0 11.030837-2.83916 16.709157-2.652986 5.02671-0.279262 10.053421-0.930872 14.9405-2.094462 5.445603-1.303221 11.07738 0 16.476439-1.163591h0.186175z" fill="#FDD905" p-id="14906"></path><path d="M593.078976 21.450555c5.724865-0.232718 10.984293-2.978791 16.755701-2.885704 6.004126-0.232718 12.054796-0.186174 18.105465 0.186175 54.549116 8.517481 106.724507 29.694826 153.966275 58.08643 8.377851 4.793992 16.290265 10.611944 24.435398 15.871372 38.538112 26.250598 72.142602 59.017302 102.25632 94.297362 20.851539 26.064424 40.492944 53.245894 55.433444 83.126895 16.476439 31.184221 29.648282 64.044013 39.329354 97.974307 5.585234 19.641405 10.146508 39.562072 13.637278 59.62237 2.652986 6.516106 0.651611 13.77691 3.118423 20.339559 2.513355 6.56265 0.372349 13.311474 1.67557 19.874123 3.630402 17.919291 1.489396 36.210932 2.094462 54.269854 0.232718 10.42577-0.465436 20.851539-2.094462 31.184221-1.117047 6.423019 0.186174 13.032212-1.582483 19.3156-2.001375 7.167717-0.977416 14.614695-3.21151 21.50315-4.421643 31.649657-13.311474 62.368443-23.83033 92.528704-6.329931 17.686573-13.683823 34.90771-22.061673 51.756499a194.785024 194.785024 0 0 1-9.867246 18.757076 41.191098 41.191098 0 0 1-0.698154 2.373725c-7.912414 12.939125-15.545567 26.064424-24.621572 38.165763-4.561274 6.004126-8.377851 12.892581-14.893957 17.034963-1.582483-1.396308-4.980167-2.373724-3.909663-5.119798 1.629026-4.607818 3.770033-8.982917 5.399059-13.590735 0.605067-1.815201 1.16359-3.583858 1.861745-5.352516 0.418893-1.396308 0.884329-2.69953 1.396308-3.956207l0.558523-2.280637a104.723131 104.723131 0 0 0 3.164966-10.518857c4.282012-12.846037 7.121173-26.250598 10.42577-39.329353 1.117047-6.097213 2.792617-12.10134 4.002751-18.245097 0-6.655737 1.954832-13.032212 2.699529-19.641405 0.465436-5.585234 1.303221-11.170467 2.513355-16.709158 0.651611-8.145132-0.372349-16.336808 0.465436-24.48194 1.535939-5.585234 0.930872-11.403185 1.02396-17.12805 0.325805-4.654361 0-9.308723-0.884329-13.916541-1.070503-7.446978 0-15.033587-0.558523-22.527109a106.584876 106.584876 0 0 1-2.327181-18.058922 481.726404 481.726404 0 0 0-18.384727-74.330152l-1.861745-2.699529c-1.861745-8.098589-6.004126-15.45248-8.796743-23.271807a404.231287 404.231287 0 0 1-7.819327-15.545567 418.659808 418.659808 0 0 0-42.63395-68.186395 244.30743 244.30743 0 0 0-18.617446-22.527109c-5.259428-7.633153-13.171843-12.846037-18.431271-20.432647a84.011223 84.011223 0 0 0-11.170467-10.984293c-6.516106-4.793992-11.07738-11.449729-17.686574-15.964459a111.890848 111.890848 0 0 0-14.056171-11.775534c-20.060298-17.034963-42.028883-31.696201-64.044013-46.078178-7.446978-4.282012-15.033587-8.098589-22.061673-12.985669a169.837647 169.837647 0 0 1-10.518857-5.119797 326.968888 326.968888 0 0 0-25.924793-12.939125 177.098451 177.098451 0 0 1-5.119797-2.606442 98.719005 98.719005 0 0 1-10.42577-5.02671c-9.355266-4.654361-19.269056-8.052045-28.624322-12.939125-9.40181-4.887079-19.222513-8.052045-28.624323-12.892581a135.023024 135.023024 0 0 1-5.259428-2.606443c-1.67557-0.930872-3.444227-1.67557-5.119798-2.606442a111.14615 111.14615 0 0 1-10.425769-5.352516l-2.373725-0.698154c-7.307347-6.143757-15.824829-10.844662-22.201304-18.012378a92.016725 92.016725 0 0 1-16.988419-24.900834c-6.56265-11.496273-7.912414-24.947377-8.982917-37.839958 0-5.678321 1.67557-11.170467 1.489395-16.895332 4.188925-20.013754 13.497648-39.608615 28.624323-53.757874 11.217011-12.10134 26.855665-18.80362 42.354689-23.457981L593.032432 21.450555z" fill="#25A636" p-id="14907"></path><path d="M480.489973 293.591066c6.516106-0.372349 12.939125-1.303221 19.269057-2.792617 11.217011-0.372349 22.480566 0 33.697576-0.186174 6.981542-0.232718 13.730366 2.094463 20.665365 2.559899 5.352516 0.186174 10.286139 2.652986 15.685198 2.83916 11.58936 3.86312 23.504525 7.167717 34.302643 13.125299 6.70228 4.468187 13.497648 8.843287 20.106841 13.497648 14.987044 13.497648 27.367645 29.648282 36.397106 47.660661 5.585234 13.171843 10.099964 26.716034 13.590736 40.539488 0.279262 6.190301 3.025335 11.915165 2.792616 18.152009-0.186174 6.190301 2.420268 11.868622 2.559899 18.15201 0 8.23822-0.139631 16.429896 0 24.668115-0.279262 2.885704 1.67557 5.119798 3.164966 7.446978 5.817952 7.912414 9.867246 16.848788 14.707782 25.319726 10.42577 22.340935 20.199928 45.193849 25.598988 69.210354 1.954832 6.516106 0.791241 13.451104 1.16359 20.199929a13.497648 13.497648 0 0 1-7.912414 4.747448 50.36019 50.36019 0 0 1-34.442275-15.080131 60.972134 60.972134 0 0 0-7.121173-6.748824c-5.724865 4.328556-6.981542 11.728991-10.472313 17.593486-5.119798 11.356642-12.24097 21.64278-17.640029 32.906335 4.3751 5.259428 11.915165 5.492146 17.407311 9.029462 8.23822 4.049294 13.683823 11.635903 18.524359 19.082881a20.851539 20.851539 0 0 1-4.188926 16.569527c-8.145132 8.377851-19.687949 12.380601-30.811872 15.219762-10.798118 2.978791-21.875499 4.933623-33.045966 5.817951-13.497648 2.373724-27.321101 0.744698-40.81875-1.023959a119.617088 119.617088 0 0 1-28.624322-6.702281c-10.798118-3.444227-21.782411-8.982917-33.418315-6.516105-10.844662 3.118422-20.851539 8.564025-32.06855 10.798118-7.912414 2.094463-16.011003 2.606442-24.016505 4.188925-8.005502 0.605067-16.150634 0-24.202679 0.279262-7.446978 0.372349-14.614695-2.652986-21.968586-2.792617a162.763018 162.763018 0 0 1-37.141804-10.658488c-6.236844-4.188925-13.032212-9.076005-15.080131-16.709157-2.373724-3.723489 0-7.772784 1.53594-11.263555 5.212885-10.798118 16.057547-17.872748 27.460732-20.711908 2.606442-0.558523 4.188925-2.792617 5.817952-4.654361a46.35744 46.35744 0 0 0-3.72349-9.215636 426.199873 426.199873 0 0 1-18.058922-33.604489 24.388854 24.388854 0 0 0-4.468187-7.167717c-4.002751-1.16359-6.283388 2.652986-8.843286 4.933624-8.517481 8.23822-19.362143 15.45248-31.649658 15.173218-3.723489 0.232718-8.982917-0.186174-10.5654-4.188926-0.139631-6.423019 2.652986-12.473689 2.792617-19.036338 6.423019-29.322477 17.12805-57.57445 31.835832-83.731961 2.69953-4.793992 6.70228-8.843287 9.355266-13.823454 2.094463-3.537315 0.744698-7.586609 0.558523-11.403185-0.605067-6.981542 1.349765-13.730366 1.582483-20.665365 1.861745-7.167717-0.372349-14.800869 2.559899-21.735867 2.094463-14.288889 5.817952-28.298517 11.123924-41.703078 4.421643-13.032212 11.915165-24.807746 19.641405-36.117845 4.3751-5.352516 8.145132-11.496273 13.869997-15.59211 5.399059-4.188925 9.91379-9.308723 15.59211-13.032212 6.981542-5.02671 15.126675-8.145132 22.66674-12.194427 5.445603-3.071879 11.635903-4.328556 17.453856-6.423019 5.352516-2.373724 11.449729-2.094463 16.941875-4.188925h-0.232718l0.093087-0.046544z" fill="#0096D3" p-id="14908"></path><path d="M798.987924 704.803895c7.167717-2.327181 14.614695 0.698154 21.922042 0.372349 14.614695 2.932248 29.22939 8.331307 40.818749 18.245097 5.585234 3.537315 9.215636 9.122548 14.195803 13.358017 4.654361 6.004126 8.982917 12.287514 12.892581 18.757077 4.514731 9.541441 8.005502 19.548318 10.425769 29.787913 0.744698 6.70228 0 13.497648 0.372349 20.339559 0.837785 13.497648-4.188925 26.390229-8.982917 38.724287-2.420268 4.747449-5.212885 9.308723-8.377851 13.637279-7.586609 9.215636-16.662614 16.941875-24.900833 25.645531-6.469562 8.145132-15.126675 14.102715-22.387479 21.50315-8.377851 6.70228-16.150634 14.288889-25.040464 20.386102-11.635903 9.308723-24.528485 16.941875-36.862542 25.36627-16.522983 8.982917-32.487443 19.082882-49.848211 26.250598a410.980111 410.980111 0 0 1-74.143977 27.088384c-19.082882 6.283388-38.957005 9.774159-58.691497 13.404561-6.469562 2.094463-13.358017 0.325805-19.82758 2.373724-6.423019 2.094463-13.77691 0.930872-20.525733 2.373724-7.307347 0.465436-14.614695 0.651611-21.828955 1.582483-18.524358 0.558523-37.048717 0-55.526532-1.582483-6.841911-1.489396-13.963084-0.139631-20.711908-2.327181-6.70228-2.234093-13.683823 0.139631-19.920667-2.885704a527.199515 527.199515 0 0 1-166.114158-55.712706c-5.864495-4.188925-12.75295-6.748824-18.850164-10.611944-25.831706-15.359393-50.220559-33.045966-72.840755-52.873545-6.516106-4.747449-11.449729-11.170467-17.64003-16.290265a91.551289 91.551289 0 0 1-16.662614-16.755701c-14.335433-13.869997-26.622947-29.648282-38.77083-45.286936a461.200671 461.200671 0 0 1-45.473111-73.725085c-2.885704-6.283388-6.609193-12.10134-8.703656-18.617445l-1.861745-2.141007a80.706627 80.706627 0 0 1-1.768657-8.703655l2.885704-3.86312c5.678321 2.373724 8.005502 8.470938 12.520232 12.380601 4.747449 6.888455 11.728991 11.635903 16.290265 18.617446 5.492146 5.678321 11.07738 11.263555 16.755701 16.709157 8.145132 6.05067 14.288889 14.288889 22.713284 20.153385 5.352516 3.723489 9.541441 8.936374 15.033587 12.194427 20.386103 16.290265 42.354689 30.39298 65.626496 42.168514 7.772784 5.445603 16.941875 8.005502 25.273182 12.380601 8.517481 3.723489 17.500399 6.516106 25.971337 10.42577 10.42577 1.722114 19.920667 7.167717 30.532611 8.37785 6.283388 2.047919 12.799494 2.978791 19.082881 4.747449 5.864495 0 11.263555 2.69953 17.081507 2.792617 5.119798 0.558523 10.239595 1.349765 15.359392 2.373724 5.166341 0.558523 10.518857-0.418893 15.638654 0.791241 4.793992 1.210134 9.541441 0.325805 14.335434 0.884329 7.72624 1.303221 15.545567 1.582483 23.364894 0.930872 6.236844-1.861745 12.985668-0.744698 19.45523-1.349764a44.216433 44.216433 0 0 1 12.706407-1.070504c7.493522 0.372349 14.614695-2.69953 22.15476-2.606442 5.352516 0.186174 10.053421-3.258053 15.499024-2.652986 11.356642-1.815201 22.434022-4.980167 33.511402-7.679696 15.731742-3.258053 30.718785-9.122548 45.938547-13.963084 9.541441-3.86312 19.3156-7.307347 28.624322-11.542817a408.280582 408.280582 0 0 0 60.692873-29.787913c7.958958-4.282012 15.731742-8.982917 23.271807-14.056171 8.331307-4.002751 15.405936-9.820703 23.132176-14.800869 6.841911-5.817952 14.754326-10.146508 21.922042-15.545567 6.70228-3.444227 11.915165-9.029461 18.338184-12.846038 12.427145-8.703656 24.668115-17.686573 37.002173-26.483316 6.748824-3.397684 12.75295-8.005502 19.687949-11.030837 11.030837-4.747449 22.713284-8.657112 34.861167-8.37785l0.279261-0.186175 0.093088 0.232718z" fill="#E40212" p-id="14909"></path></svg>