<?xml version="1.0" standalone="no"?><!DOCTYPE svg PUBLIC "-//W3C//DTD SVG 1.1//EN" "http://www.w3.org/Graphics/SVG/1.1/DTD/svg11.dtd"><svg t="1723281915945" class="icon" viewBox="0 0 1047 1024" version="1.1" xmlns="http://www.w3.org/2000/svg" p-id="22284" xmlns:xlink="http://www.w3.org/1999/xlink" width="16.359375" height="16"><path d="M512 0c282.763636 0 512 229.236364 512 512s-229.236364 512-512 512S0 794.763636 0 512 229.236364 0 512 0z m-209.454545 442.181818a69.818182 69.818182 0 1 0 0 139.636364 69.818182 69.818182 0 0 0 0-139.636364z m209.454545 0a69.818182 69.818182 0 1 0 0 139.636364 69.818182 69.818182 0 0 0 0-139.636364z m209.454545 0a69.818182 69.818182 0 1 0 0 139.636364 69.818182 69.818182 0 0 0 0-139.636364z" fill="#707070" p-id="22285"></path></svg>